<?xml version="1.0" standalone="no"?><!DOCTYPE svg PUBLIC "-//W3C//DTD SVG 1.1//EN" "http://www.w3.org/Graphics/SVG/1.1/DTD/svg11.dtd"><svg class="icon" width="200px" height="200.00px" viewBox="0 0 1024 1024" version="1.1" xmlns="http://www.w3.org/2000/svg"><path d="M958.2 511.1C958.2 264.8 758.5 65 512.1 65S66 264.8 66 511.1c0 246.4 199.7 446.1 446.1 446.1H911c14 0 25.3-11.3 25.3-25.1L851 801.2c66.9-78 107.2-179.3 107.2-290.1z" fill="#333333" /><path d="M701.7 444.2c-30.8 0-55.8 25-55.8 55.8 0 30.8 25 55.8 55.8 55.8 30.8 0 55.8-25 55.8-55.8 0-30.8-25-55.8-55.8-55.8z m-401.5 0c-30.8 0-55.8 25-55.8 55.8 0 30.8 25 55.8 55.8 55.8s55.8-25 55.8-55.8c0-30.8-25-55.8-55.8-55.8z m200.8 0c-30.8 0-55.8 25-55.8 55.8 0 30.8 25 55.8 55.8 55.8s55.8-25 55.8-55.8c-0.1-30.8-25-55.8-55.8-55.8z" fill="#FFFFFF" /></svg>